<mxfile host="app.diagrams.net" modified="2023-10-31T13:38:56.711Z" agent="Mozilla/5.0 (iPhone; CPU iPhone OS 17_0_3 like Mac OS X) AppleWebKit/605.1.15 (KHTML, like Gecko) Version/17.0.1 Mobile/15E148 Safari/604.1" version="22.0.8" etag="EwaJLf_8K15F21dODC-g" type="github">
  <diagram name="ページ1" id="Y7Vls7IAPU8thcxcIVKc">
    <mxGraphModel>
      <root>
        <mxCell id="0" />
        <mxCell id="1" parent="0" />
      </root>
    </mxGraphModel>
  </diagram>
</mxfile>
